<svg xmlns="http://www.w3.org/2000/svg" width="17.753" height="23.419" viewBox="0 0 17.753 23.419"><g transform="translate(-72 -8)"><path d="M72.378,8h13.6a.378.378,0,0,1,.378.378v3.4h3.022a.378.378,0,0,1,.378.378V31.042a.378.378,0,0,1-.378.378h-13.6a.378.378,0,0,1-.378-.378v-3.4H72.378A.378.378,0,0,1,72,27.264V8.378A.378.378,0,0,1,72.378,8ZM85.6,8.92l-7.714,2.857H85.6ZM76.155,30.664H89V12.533H76.155Zm-3.4-3.777H75.4V12.155a.378.378,0,0,1,.246-.354l8.223-3.045H72.755Z" fill="#465a51"/><path d="M176.168,125.352l.965-.643v-3.953a.756.756,0,0,1,.755-.755h.755a.756.756,0,0,1,.755.755v3.953l.965.643a.379.379,0,0,1,.168.314v7.177a.756.756,0,0,1-.755.755h-3.022a.756.756,0,0,1-.755-.755v-7.177A.379.379,0,0,1,176.168,125.352Zm2.476-4.6h-.755v.378h.755Zm-1.889,12.087h3.022V130.2h-3.022Zm0-3.4h3.022v-2.266h-3.022Zm0-3.022h3.022v-.553l-.965-.643a.379.379,0,0,1-.168-.314v-3.022h-.755v3.022a.379.379,0,0,1-.168.314l-.965.643Z" transform="translate(-95.69 -106.712)" fill="#465a51"/><path d="M200.378,344h1.511a.378.378,0,0,1,0,.755h-1.511a.378.378,0,1,1,0-.755Z" transform="translate(-118.557 -320.135)" fill="#465a51"/><path d="M208.378,368h.755a.378.378,0,1,1,0,.755h-.755a.378.378,0,1,1,0-.755Z" transform="translate(-126.179 -343.002)" fill="#465a51"/><path d="M129.443,424.755h-9.066a.378.378,0,0,1,0-.755h9.066a.378.378,0,0,1,0,.755Z" transform="translate(-42.334 -396.358)" fill="#465a51"/><path d="M144.378,448h5.288a.378.378,0,0,1,0,.755h-5.288a.378.378,0,1,1,0-.755Z" transform="translate(-63.69 -419.225)" fill="#465a51"/><path d="M280.378,448h.378a.378.378,0,0,1,0,.755h-.378a.378.378,0,1,1,0-.755Z" transform="translate(-201.201 -419.225)" fill="#465a51"/></g></svg>