<svg xmlns="http://www.w3.org/2000/svg" width="26.858" height="27.401" viewBox="0 0 26.858 27.401"><g transform="translate(-15 -10.25)"><path d="M140.512,194.1h-.385v-9.751H145.5a.3.3,0,0,0,.31-.316v-1.9a.329.329,0,0,0-.31-.35h-2.2v-.525a1.152,1.152,0,0,0,.78-1.1v-1.832a.323.323,0,0,0-.321-.333h-1.628a.334.334,0,0,0-.335.333v1.832a1.133,1.133,0,0,0,.836,1.1v.525h-7.467v-.525a1.133,1.133,0,0,0,.836-1.1v-1.832a.334.334,0,0,0-.335-.333H134.04a.323.323,0,0,0-.321.333v1.832a1.152,1.152,0,0,0,.78,1.1v.525h-2.2a.329.329,0,0,0-.31.35v1.9a.3.3,0,0,0,.31.316h5.374V194.1h-.385a1.6,1.6,0,0,0-1.579,1.6.35.35,0,0,0,.334.353h5.713a.35.35,0,0,0,.334-.353A1.6,1.6,0,0,0,140.512,194.1Zm1.955-15.435h.947v.557h-.947Zm0,1.5v-.271h.947v.271a.474.474,0,0,1-.947,0Zm-8.08-1.5h.947v.557h-.947Zm0,1.5v-.271h.947v.271a.474.474,0,0,1-.947,0Zm-1.727,3.518v-1.226h12.482v1.226Zm6.8.669V194.1h-1.114v-9.751Zm-3.016,11.033a.951.951,0,0,1,.847-.613h3.222a.95.95,0,0,1,.847.613Z" transform="translate(-110.472 -158.403)" fill="#465a51"/><path d="M207.447,16.031h1.373a1.022,1.022,0,0,0,2.011,0H212.2a.346.346,0,0,0,.347-.335,2.763,2.763,0,0,0-1.777-2.551v-.164a.946.946,0,0,0-.613-.859V10.584a.334.334,0,0,0-.669,0v1.538a.946.946,0,0,0-.613.859v.164A2.763,2.763,0,0,0,207.1,15.7.346.346,0,0,0,207.447,16.031Zm2.378.168a.332.332,0,0,1-.3-.168h.6A.332.332,0,0,1,209.825,16.2Zm-.279-3.219a.264.264,0,0,1,.251-.252h.052a.267.267,0,0,1,.254.252V13c-.111-.008-.193-.012-.279-.012s-.167,0-.279.012Zm.279.672a2.067,2.067,0,0,1,2.016,1.709h-4.033A2.067,2.067,0,0,1,209.825,13.653Z" transform="translate(-181.396)" fill="#465a51"/><path d="M250,131.219v.537a.334.334,0,1,0,.669,0v-.537a.334.334,0,0,0-.669,0Z" transform="translate(-221.905 -113.913)" fill="#465a51"/><path d="M268.122,125.524a.334.334,0,0,0,0,.473l.359.367a.334.334,0,1,0,.478-.468l-.359-.367a.334.334,0,0,0-.473,0Z" transform="translate(-238.923 -108.76)" fill="#465a51"/><path d="M225.988,125.529l-.359.367a.334.334,0,1,0,.478.468l.359-.367a.334.334,0,0,0-.478-.468Z" transform="translate(-198.802 -108.761)" fill="#465a51"/><path d="M367.274,321h-6.968a.307.307,0,0,0-.313.323v1.3a.314.314,0,0,0,.313.331h.457l-.595,7.76a.353.353,0,0,0,.088.261.342.342,0,0,0,.245.115h1.262a.342.342,0,0,0,.333-.318l.6-7.818h2.188l.6,7.818a.342.342,0,0,0,.333.318h1.262a.341.341,0,0,0,.245-.114.346.346,0,0,0,.088-.258l-.594-7.763h.457a.348.348,0,0,0,.353-.331v-1.3A.341.341,0,0,0,367.274,321Zm-5.82,9.417h-.592l.571-7.467h.592Zm4.671,0-.571-7.467h.592l.571,7.467Zm.832-8.135h-6.3v-.613h6.3Z" transform="translate(-325.769 -293.433)" fill="#465a51"/><path d="M22.321,321H15.353a.341.341,0,0,0-.353.323v1.3a.348.348,0,0,0,.353.331h.457l-.595,7.76a.352.352,0,0,0,.088.261.342.342,0,0,0,.245.115h1.263a.342.342,0,0,0,.333-.318l.6-7.818h2.188l.6,7.818a.342.342,0,0,0,.333.318h1.262a.341.341,0,0,0,.245-.114.346.346,0,0,0,.088-.258l-.595-7.763h.457a.314.314,0,0,0,.313-.331v-1.3a.307.307,0,0,0-.313-.323Zm-5.82,9.417h-.592l.571-7.467h.592Zm4.671,0-.571-7.467h.592l.571,7.467Zm.793-8.135h-6.3v-.613h6.3Z" transform="translate(0 -293.433)" fill="#465a51"/></g></svg>